HIERARCHY
ROOT Hips
{
    OFFSET 0.000000 0.000000 0.000000
    CHANNELS 6 Xposition Yposition Zposition Zrotation Xrotation Yrotation
    JOINT Spine
    {
        OFFSET -0.000000 8.216963 0.000000
        CHANNELS 3 Zrotation Xrotation Yrotation
        JOINT Spine1
        {
            OFFSET 0.000000 21.842321 0.000001
            CHANNELS 3 Zrotation Xrotation Yrotation
            JOINT Neck
            {
                OFFSET -0.000000 21.944920 -0.000000
                CHANNELS 3 Zrotation Xrotation Yrotation
                JOINT Head
                {
                    OFFSET 0.000000 13.250616 1.860770
                    CHANNELS 3 Zrotation Xrotation Yrotation
                    End Site
                    {
                        OFFSET 0.000000 18.607679 0.000000
                    }
                }
            }
            JOINT LeftShoulder
            {
                OFFSET 3.712020 16.075399 -0.493154
                CHANNELS 3 Zrotation Xrotation Yrotation
                JOINT LeftArm
                {
                    OFFSET 15.576395 0.000004 0.000000
                    CHANNELS 3 Zrotation Xrotation Yrotation
                    JOINT LeftForeArm
                    {
                        OFFSET 23.916098 0.000006 -0.000000
                        CHANNELS 3 Zrotation Xrotation Yrotation
                        JOINT LeftHand
                        {
                            OFFSET 23.235397 -0.000000 0.000000
                            CHANNELS 3 Zrotation Xrotation Yrotation
                            JOINT LeftHandThumb1
                            {
                                OFFSET 1.944498 -2.209659 3.093530
                                CHANNELS 3 Zrotation Xrotation Yrotation
                                JOINT LeftHandThumb2
                                {
                                    OFFSET 2.936881 0.000002 -0.000004
                                    CHANNELS 3 Zrotation Xrotation Yrotation
                                    JOINT LeftHandThumb3
                                    {
                                        OFFSET 2.510182 -0.000003 0.000003
                                        CHANNELS 3 Zrotation Xrotation Yrotation
                                        End Site
                                        {
                                            OFFSET 2.335431 0.000000 0.000000
                                        }
                                    }
                                }
                            }
                            JOINT LeftHandIndex1
                            {
                                OFFSET 7.954782 -0.000002 3.093530
                                CHANNELS 3 Zrotation Xrotation Yrotation
                                JOINT LeftHandIndex2
                                {
                                    OFFSET 4.419319 0.000001 -0.000000
                                    CHANNELS 3 Zrotation Xrotation Yrotation
                                    JOINT LeftHandIndex3
                                    {
                                        OFFSET 2.209659 -0.000000 -0.000000
                                        CHANNELS 3 Zrotation Xrotation Yrotation
                                        End Site
                                        {
                                            OFFSET 2.055832 0.000000 0.000000
                                        }
                                    }
                                }
                            }
                            JOINT LeftHandMiddle1
                            {
                                OFFSET 7.954784 -0.000005 1.025280
                                CHANNELS 3 Zrotation Xrotation Yrotation
                                JOINT LeftHandMiddle2
                                {
                                    OFFSET 4.861260 -0.000002 0.000000
                                    CHANNELS 3 Zrotation Xrotation Yrotation
                                    JOINT LeftHandMiddle3
                                    {
                                        OFFSET 2.651592 -0.000000 -0.000000
                                        CHANNELS 3 Zrotation Xrotation Yrotation
                                        End Site
                                        {
                                            OFFSET 2.466997 0.000000 0.000000
                                        }
                                    }
                                }
                            }
                            JOINT LeftHandRing1
                            {
                                OFFSET 7.512850 -0.000003 -1.025280
                                CHANNELS 3 Zrotation Xrotation Yrotation
                                JOINT LeftHandRing2
                                {
                                    OFFSET 4.419321 -0.000005 0.000000
                                    CHANNELS 3 Zrotation Xrotation Yrotation
                                    JOINT LeftHandRing3
                                    {
                                        OFFSET 2.209659 0.000005 0.000000
                                        CHANNELS 3 Zrotation Xrotation Yrotation
                                        End Site
                                        {
                                            OFFSET 2.055832 0.000000 0.000000
                                        }
                                    }
                                }
                            }
                            JOINT LeftHandPinky1
                            {
                                OFFSET 7.070921 -0.000005 -3.093531
                                CHANNELS 3 Zrotation Xrotation Yrotation
                                JOINT LeftHandPinky2
                                {
                                    OFFSET 3.535459 -0.000004 -0.000001
                                    CHANNELS 3 Zrotation Xrotation Yrotation
                                    JOINT LeftHandPinky3
                                    {
                                        OFFSET 1.767731 -0.000002 -0.000001
                                        CHANNELS 3 Zrotation Xrotation Yrotation
                                        End Site
                                        {
                                            OFFSET 1.644668 0.000000 0.000000
                                        }
                                    }
                                }
                            }
                        }
                    }
                }
            }
            JOINT RightShoulder
            {
                OFFSET -3.712019 16.075397 -0.493154
                CHANNELS 3 Zrotation Xrotation Yrotation
                JOINT RightArm
                {
                    OFFSET -15.576399 -0.000003 0.000000
                    CHANNELS 3 Zrotation Xrotation Yrotation
                    JOINT RightForeArm
                    {
                        OFFSET -23.916103 0.000000 0.000000
                        CHANNELS 3 Zrotation Xrotation Yrotation
                        JOINT RightHand
                        {
                            OFFSET -23.235397 -0.000002 -0.000000
                            CHANNELS 3 Zrotation Xrotation Yrotation
                            JOINT RightHandThumb1
                            {
                                OFFSET -1.944501 -2.209665 3.093530
                                CHANNELS 3 Zrotation Xrotation Yrotation
                                JOINT RightHandThumb2
                                {
                                    OFFSET -2.936877 -0.000001 0.000003
                                    CHANNELS 3 Zrotation Xrotation Yrotation
                                    JOINT RightHandThumb3
                                    {
                                        OFFSET -2.510183 0.000003 -0.000004
                                        CHANNELS 3 Zrotation Xrotation Yrotation
                                        End Site
                                        {
                                            OFFSET -2.335431 0.000000 0.000000
                                        }
                                    }
                                }
                            }
                            JOINT RightHandIndex1
                            {
                                OFFSET -7.954779 0.000005 3.093530
                                CHANNELS 3 Zrotation Xrotation Yrotation
                                JOINT RightHandIndex2
                                {
                                    OFFSET -4.419320 0.000000 -0.000000
                                    CHANNELS 3 Zrotation Xrotation Yrotation
                                    JOINT RightHandIndex3
                                    {
                                        OFFSET -2.209658 0.000002 -0.000000
                                        CHANNELS 3 Zrotation Xrotation Yrotation
                                        End Site
                                        {
                                            OFFSET -2.055832 0.000000 0.000000
                                        }
                                    }
                                }
                            }
                            JOINT RightHandMiddle1
                            {
                                OFFSET -7.954782 -0.000001 1.025280
                                CHANNELS 3 Zrotation Xrotation Yrotation
                                JOINT RightHandMiddle2
                                {
                                    OFFSET -4.861260 -0.000005 -0.000000
                                    CHANNELS 3 Zrotation Xrotation Yrotation
                                    JOINT RightHandMiddle3
                                    {
                                        OFFSET -2.651591 -0.000004 -0.000000
                                        CHANNELS 3 Zrotation Xrotation Yrotation
                                        End Site
                                        {
                                            OFFSET -2.466997 0.000000 0.000000
                                        }
                                    }
                                }
                            }
                            JOINT RightHandRing1
                            {
                                OFFSET -7.512852 -0.000002 -1.025280
                                CHANNELS 3 Zrotation Xrotation Yrotation
                                JOINT RightHandRing2
                                {
                                    OFFSET -4.419322 -0.000001 -0.000000
                                    CHANNELS 3 Zrotation Xrotation Yrotation
                                    JOINT RightHandRing3
                                    {
                                        OFFSET -2.209661 -0.000001 -0.000000
                                        CHANNELS 3 Zrotation Xrotation Yrotation
                                        End Site
                                        {
                                            OFFSET -2.055832 0.000000 0.000000
                                        }
                                    }
                                }
                            }
                            JOINT RightHandPinky1
                            {
                                OFFSET -7.070920 -0.000001 -3.093530
                                CHANNELS 3 Zrotation Xrotation Yrotation
                                JOINT RightHandPinky2
                                {
                                    OFFSET -3.535458 0.000001 0.000001
                                    CHANNELS 3 Zrotation Xrotation Yrotation
                                    JOINT RightHandPinky3
                                    {
                                        OFFSET -1.767730 -0.000004 -0.000001
                                        CHANNELS 3 Zrotation Xrotation Yrotation
                                        End Site
                                        {
                                            OFFSET -1.644668 0.000000 0.000000
                                        }
                                    }
                                }
                            }
                        }
                    }
                }
            }
        }
    }
    JOINT LeftUpLeg
    {
        OFFSET 9.303840 0.000002 0.000000
        CHANNELS 3 Zrotation Xrotation Yrotation
        JOINT LeftLeg
        {
            OFFSET -0.000000 -40.203197 -0.000000
            CHANNELS 3 Zrotation Xrotation Yrotation
            JOINT LeftFoot
            {
                OFFSET 0.000000 -39.931198 0.000000
                CHANNELS 3 Zrotation Xrotation Yrotation
                JOINT LeftToeBase
                {
                    OFFSET 0.000001 -6.047500 13.955799
                    CHANNELS 3 Zrotation Xrotation Yrotation
                    End Site
                    {
                        OFFSET 0.000000 0.000000 3.721536
                    }
                }
            }
        }
    }
    JOINT RightUpLeg
    {
        OFFSET -9.303839 -0.000002 -0.000000
        CHANNELS 3 Zrotation Xrotation Yrotation
        JOINT RightLeg
        {
            OFFSET -0.000000 -40.203201 0.000000
            CHANNELS 3 Zrotation Xrotation Yrotation
            JOINT RightFoot
            {
                OFFSET 0.000001 -39.931198 -0.000001
                CHANNELS 3 Zrotation Xrotation Yrotation
                JOINT RightToeBase
                {
                    OFFSET -0.000000 -6.047500 13.955803
                    CHANNELS 3 Zrotation Xrotation Yrotation
                    End Site
                    {
                        OFFSET 0.000000 0.000000 3.721536
                    }
                }
            }
        }
    }
}
MOTION
Frames:    4
Frame Time:    0.008333
-1.034674    126.797661    0.290638    1.454756    8.470530    -5.221869    -0.984252    -20.437466    -2.816720    1.447309    10.060609    -2.851901    -2.543265    -8.941547    1.187558    -4.522649    22.952784    3.242920    20.838898    -8.795720    7.287504    37.530529    -9.608461    27.732590    -5.627121    -57.906761    -6.633777    -0.768785    -5.876181    -0.072998    21.895279    46.502232    -61.122887    -22.867783    -4.684810    22.867783    -0.000000    0.000000    -0.000000    -6.022412    17.906975    -15.283260    -5.729663    -0.000005    0.000005    -5.729666    0.000004    0.000004    -5.729664    0.000004    -8.570594    -5.729667    0.000003    0.000000    -5.729666    0.000002    0.000000    -5.729666    0.000002    5.713730    -5.729670    0.000002    0.000002    -5.729663    0.000003    -0.000005    -6.022406    -17.906969    9.569551    -5.729673    -0.000002    -0.000002    -5.729662    -0.000007    -0.000002    -22.882990    -4.065170    -15.900238    -31.973227    -19.455917    -26.324944    17.782448    -43.232483    25.090942    -16.655401    -12.006124    -15.347534    -21.895296    46.502209    61.122898    22.867792    -4.684808    -22.867792    -0.000000    0.000000    -0.000000    6.022406    17.906971    15.283256    5.729661    -0.000001    0.000002    5.729665    0.000001    0.000002    5.729667    0.000003    8.570585    5.729661    -0.000006    -0.000003    5.729658    -0.000002    0.000004    5.729663    0.000001    -5.713725    5.729666    -0.000003    -0.000007    5.729663    0.000003    -0.000000    6.022402    -17.906971    -9.569536    5.729671    -0.000000    -0.000000    5.729669    0.000000    -0.000000    36.314632    8.153439    -10.667181    0.000006    9.715188    -0.000001    -18.424999    22.846071    39.691383    -0.000002    13.466153    -0.000001    -46.599201    15.815196    1.267207    -0.000007    7.091458    -0.000000    8.520331    19.497955    -30.241623    0.000003    5.560163    0.000005    
-0.977634    126.865089    0.275079    1.439815    8.527799    -4.959235    -0.885156    -20.252846    -2.555553    1.359824    9.963850    -2.596895    -2.621059    -9.498465    0.946302    -4.582079    23.736172    3.128099    20.973557    -9.107675    7.215668    38.076153    -10.755848    28.090931    -7.042438    -60.168198    -8.104819    -0.257957    -6.727562    0.125910    21.895241    46.502449    -61.123276    -22.867785    -4.684812    22.867786    -0.000000    0.000000    -0.000000    -6.022418    17.906975    -15.283558    -5.729655    0.000004    -0.000007    -5.729661    -0.000009    0.000001    -5.729670    0.000006    -8.570742    -5.729659    -0.000009    -0.000004    -5.729668    -0.000000    0.000003    -5.729668    0.000003    5.713834    -5.729664    -0.000007    -0.000000    -5.729668    0.000013    0.000001    -6.022407    -17.906975    9.569747    -5.729662    -0.000006    0.000005    -5.729665    0.000002    0.000003    -21.885107    -3.803677    -15.636346    -32.707397    -17.360159    -27.676432    17.348549    -43.569820    24.382269    -16.555937    -11.284765    -16.305101    -21.895229    46.502449    61.123260    22.867777    -4.684809    -22.867786    -0.000000    0.000000    -0.000000    6.022418    17.906975    15.283565    5.729660    -0.000004    0.000002    5.729659    0.000001    0.000002    5.729665    -0.000002    8.570748    5.729666    -0.000001    0.000000    5.729673    0.000005    -0.000000    5.729663    -0.000009    -5.713840    5.729670    0.000001    0.000003    5.729665    -0.000000    -0.000003    6.022418    -17.906975    -9.569748    5.729653    -0.000007    -0.000003    5.729665    0.000003    0.000003    36.979916    7.890031    -11.004625    -0.000002    9.460034    -0.000001    -17.310474    21.473989    40.434338    0.000002    13.168029    0.000002    -47.274193    16.241697    1.435516    0.000011    6.956778    0.000002    7.000485    18.258148    -30.747026    -0.000002    5.323784    -0.000004    
-0.932379    126.874069    0.246429    1.418737    8.533070    -4.714990    -0.789959    -20.054949    -2.302521    1.165505    9.897561    -2.331177    -2.640778    -9.845722    0.707666    -4.413260    24.385574    2.897236    21.012886    -8.998614    6.917543    38.503124    -11.371908    28.507484    -7.545229    -61.664902    -8.557994    0.334700    -7.197554    0.030758    21.895205    46.502678    -61.123665    -22.867792    -4.684812    22.867786    -0.000000    0.000000    -0.000000    -6.022418    17.906979    -15.283872    -5.729657    0.000004    -0.000007    -5.729664    0.000002    0.000003    -5.729669    0.000002    -8.570893    -5.729659    -0.000013    -0.000004    -5.729672    0.000014    0.000001    -5.729665    -0.000003    5.713950    -5.729660    -0.000001    -0.000003    -5.729664    -0.000003    0.000002    -6.022414    -17.906967    9.569967    -5.729663    0.000001    -0.000005    -5.729661    0.000001    0.000002    -21.145876    -3.821708    -15.359447    -33.089462    -15.750003    -28.732325    17.310596    -44.048893    24.145157    -16.616995    -10.828966    -16.907625    -21.895185    46.502666    61.123642    22.867775    -4.684811    -22.867792    -0.000000    0.000000    -0.000000    6.022414    17.906971    15.283880    5.729667    0.000004    0.000003    5.729664    -0.000006    -0.000001    5.729676    0.000009    8.570903    5.729650    -0.000009    0.000004    5.729670    0.000003    -0.000000    5.729671    0.000005    -5.713948    5.729657    -0.000001    0.000007    5.729666    0.000000    -0.000000    6.022409    -17.906971    -9.569964    5.729664    0.000001    0.000003    5.729666    0.000001    -0.000000    37.443062    7.679919    -11.026893    -0.000010    9.109585    0.000004    -15.591193    20.113400    40.906506    -0.000006    12.797496    0.000004    -47.728630    16.549576    1.424930    -0.000002    6.966691    -0.000001    5.298373    17.336779    -31.131941    0.000005    5.142342    -0.000004    
-0.894620    126.829163    0.200865    1.390909    8.489286    -4.504303    -0.716218    -19.838566    -2.109582    0.929147    9.865856    -2.114281    -2.593874    -9.996047    0.526946    -4.122236    24.848076    2.635457    20.916052    -8.515830    6.449722    38.828583    -11.335038    28.977121    -6.986147    -62.134724    -7.891556    0.929956    -7.094004    -0.248654    21.895159    46.502888    -61.124027    -22.867783    -4.684810    22.867783    -0.000000    0.000000    -0.000000    -6.022409    17.906967    -15.284191    -5.729664    0.000004    0.000000    -5.729656    -0.000006    -0.000000    -5.729665    -0.000004    -8.571062    -5.729661    -0.000010    0.000003    -5.729668    0.000010    -0.000003    -5.729665    -0.000009    5.714043    -5.729663    -0.000002    -0.000004    -5.729665    0.000005    0.000000    -6.022411    -17.906971    9.570165    -5.729666    0.000002    0.000003    -5.729661    -0.000001    -0.000005    -20.681072    -4.085730    -15.106680    -33.167633    -14.706735    -29.490299    17.899469    -44.763138    24.639240    -16.734081    -10.761982    -17.130424    -21.895163    46.502895    61.124031    22.867792    -4.684810    -22.867785    -0.000000    0.000000    -0.000000    6.022410    17.906973    15.284189    5.729671    -0.000003    0.000000    5.729667    0.000001    0.000002    5.729666    -0.000006    8.571054    5.729662    -0.000003    0.000004    5.729667    0.000000    -0.000000    5.729664    -0.000009    -5.714052    5.729669    0.000000    -0.000003    5.729661    0.000004    0.000003    6.022408    -17.906961    -9.570183    5.729666    -0.000019    0.000015    5.729665    0.000000    -0.000003    37.692371    7.519391    -10.665738    -0.000008    8.664844    0.000004    -13.492101    18.708799    41.317665    0.000012    12.361507    0.000005    -48.004707    16.739485    1.248269    -0.000002    7.058182    -0.000001    3.814780    16.893385    -31.411306    0.000009    5.081594    0.000006    
